<svg aria-hidden="true" style="width:0;height:0;position:absolute;overflow:hidden" xmlns="http://www.w3.org/2000/svg"><defs><symbol id="facebook" viewBox="0 0 32 32"><path d="M13.912 11.099v2.203h-1.613v2.693h1.613V24h3.315v-8.005h2.224s.21-1.291.31-2.704h-2.522v-1.84c0-.277.362-.646.72-.646h1.805V8h-2.456c-3.478 0-3.397 2.696-3.397 3.099z"/><path d="M6.4 3.2a3.2 3.2 0 0 0-3.2 3.2v19.2a3.2 3.2 0 0 0 3.2 3.2h19.2a3.2 3.2 0 0 0 3.2-3.2V6.4a3.2 3.2 0 0 0-3.2-3.2H6.4zm0-3.2h19.2A6.403 6.403 0 0 1 32 6.401v19.2a6.402 6.402 0 0 1-6.4 6.4H6.4a6.4 6.4 0 0 1-6.401-6.4v-19.2A6.4 6.4 0 0 1 6.4 0z"/></symbol><symbol id="telegram" viewBox="0 0 34 32"><path d="M31.246 1.679c-.405.03-.804.125-1.178.282h-.005c-.36.143-2.072.863-4.674 1.954l-9.325 3.927c-6.691 2.817-13.268 5.591-13.268 5.591l.078-.03s-.453.149-.927.474c-.293.186-.544.43-.74.716-.232.341-.419.863-.35 1.402.114.912.705 1.459 1.129 1.761.429.306.839.448.839.448h.01l6.168 2.078c.277.888 1.88 6.158 2.265 7.372.227.725.448 1.178.725 1.525.134.177.291.325.479.443.098.057.202.102.311.134l-.063-.015c.019.005.034.02.048.025.051.014.085.019.149.029.976.296 1.761-.311 1.761-.311l.044-.035 3.642-3.316 6.104 4.682.139.059c1.272.558 2.56.248 3.241-.301.686-.552.952-1.258.952-1.258l.044-.114 4.717-24.163c.134-.596.168-1.155.02-1.696a2.285 2.285 0 0 0-.986-1.323 2.367 2.367 0 0 0-1.348-.341zm-.127 2.589c-.005.08.01.071-.025.224v.014l-4.672 23.912c-.02.034-.054.109-.148.183-.099.078-.177.128-.587-.035l-7.465-5.723-4.509 4.11.947-6.051L26.857 9.534c.503-.467.335-.566.335-.566.035-.573-.759-.168-.759-.168l-15.38 9.528-.005-.025-7.391-2.491a.25.25 0 0 0 .038-.015l.04-.02.039-.014s6.582-2.774 13.273-5.591c3.35-1.411 6.725-2.832 9.321-3.928 1.539-.648 3.08-1.292 4.623-1.933.104-.04.054-.04.129-.04V4.27z"/></symbol><symbol id="instagram" viewBox="0 0 32 32"><path d="M9.404.096C11.11.017 11.654 0 16 0s4.89.019 6.595.096 2.868.349 3.887.743a7.88 7.88 0 0 1 2.833 1.847 7.803 7.803 0 0 1 1.844 2.832c.396 1.018.666 2.182.745 3.884.079 1.709.096 2.253.096 6.598 0 4.346-.019 4.89-.096 6.596-.077 1.702-.349 2.865-.745 3.884a7.85 7.85 0 0 1-1.844 2.835 7.832 7.832 0 0 1-2.833 1.844c-1.018.396-2.182.666-3.884.745C20.89 31.983 20.346 32 16 32s-4.89-.019-6.596-.096c-1.702-.077-2.865-.349-3.884-.745a7.85 7.85 0 0 1-2.835-1.844 7.846 7.846 0 0 1-1.846-2.833C.445 25.464.174 24.3.096 22.598.017 20.889 0 20.345 0 16c0-4.346.019-4.89.096-6.595s.349-2.868.743-3.887a7.854 7.854 0 0 1 1.847-2.833A7.843 7.843 0 0 1 5.518.839C6.536.445 7.7.174 9.402.096h.001zm13.061 2.88c-1.687-.077-2.193-.093-6.465-.093s-4.778.016-6.465.093c-1.561.071-2.407.332-2.972.551a4.972 4.972 0 0 0-1.84 1.196 4.966 4.966 0 0 0-1.196 1.84c-.22.564-.48 1.411-.551 2.972-.077 1.687-.093 2.193-.093 6.465s.016 4.778.093 6.465c.071 1.561.332 2.407.551 2.972a4.962 4.962 0 0 0 1.196 1.84c.516.531 1.146.94 1.84 1.196.564.22 1.411.48 2.972.551 1.687.077 2.192.093 6.465.093s4.778-.016 6.465-.093c1.561-.071 2.407-.332 2.972-.551a4.972 4.972 0 0 0 1.84-1.196 4.962 4.962 0 0 0 1.196-1.84c.22-.564.48-1.411.551-2.972.077-1.687.093-2.193.093-6.465s-.016-4.778-.093-6.465c-.071-1.561-.332-2.407-.551-2.972a4.972 4.972 0 0 0-1.196-1.84 4.974 4.974 0 0 0-1.84-1.196c-.564-.22-1.411-.48-2.972-.551zm-8.509 17.956a5.335 5.335 0 0 0 6.488-1.962 5.342 5.342 0 0 0-2.646-7.995 5.34 5.34 0 0 0-7.078 4.243 5.334 5.334 0 0 0 3.236 5.714zm-3.771-10.747A8.232 8.232 0 0 1 16 7.776a8.23 8.23 0 0 1 7.598 5.077 8.21 8.21 0 0 1 0 6.294 8.225 8.225 0 1 1-13.413-8.962zm15.863-1.184a1.958 1.958 0 0 0 .611-1.386 1.953 1.953 0 0 0-.569-1.403 1.948 1.948 0 0 0-1.403-.569 1.945 1.945 0 1 0 1.363 3.36z"/></symbol><symbol id="phone" viewBox="0 0 19 32"><path d="M15.6 0a3.602 3.602 0 0 1 3.6 3.6v24.8a3.602 3.602 0 0 1-3.6 3.6h-12A3.602 3.602 0 0 1 0 28.4V3.6A3.602 3.602 0 0 1 3.6 0h12zm0 2.4h-12a1.195 1.195 0 0 0-1.2 1.2v24.8c0 .662.538 1.2 1.2 1.2h12a1.206 1.206 0 0 0 1.2-1.2V3.6a1.2 1.2 0 0 0-1.2-1.2zm-4.002 22.4a1.203 1.203 0 0 1 .852 2.047c-.225.225-.53.352-.848.353l-4 .006a1.203 1.203 0 0 1-.852-2.047c.225-.225.53-.352.848-.353l4-.006z"/></symbol><symbol id="gps" viewBox="0 0 20 32"><path d="M10 .018c-5.524 0-10 4.458-10 9.98 0 9.548 10 22 10 22s10-12.454 10-22c0-5.52-4.476-9.98-10-9.98zm0 15.502a5.397 5.397 0 0 1-5.4-5.4 5.397 5.397 0 0 1 5.4-5.4 5.397 5.397 0 0 1 5.4 5.4 5.397 5.397 0 0 1-5.4 5.4z"/></symbol><symbol id="icon-Vector" viewBox="0 0 19 32"><path d="M9.6.658C4.297.658 0 4.938 0 10.239c0 9.166 9.6 21.12 9.6 21.12s9.6-11.956 9.6-21.12C19.2 4.94 14.903.658 9.6.658zm0 14.882a5.186 5.186 0 0 1-5.184-5.184A5.186 5.186 0 0 1 9.6 5.172a5.186 5.186 0 0 1 5.184 5.184A5.186 5.186 0 0 1 9.6 15.54z"/></symbol><symbol id="icon-x" viewBox="0 0 32 32"><path d="M3.013 2.499c-.248.152-.547.513-.608.736-.129.467-.44.127 5.843 6.419l5.777 5.787-5.781 5.787c-6.295 6.299-5.973 5.947-5.835 6.412.125.415.633.841 1.004.841.132-.009.255-.038.369-.085l-.008.003c.14-.057 1.893-1.776 5.932-5.813l5.735-5.729 5.705 5.709c3.217 3.219 5.793 5.755 5.904 5.813.365.189.717.108 1.076-.251s.44-.711.251-1.076c-.059-.111-2.595-2.687-5.813-5.904l-5.709-5.705 5.729-5.735c4.037-4.039 5.756-5.792 5.813-5.932a.786.786 0 0 0-.024-.732l.002.004c-.115-.225-.424-.52-.625-.597-.193-.073-.536-.06-.7.027-.079.043-2.724 2.659-5.877 5.813l-5.733 5.737-5.76-5.757C6.428 5.02 3.855 2.49 3.769 2.458c-.229-.085-.579-.067-.756.043z"/></symbol><symbol id="arrow-right" viewBox="0 0 32 32"><path d="M22.492 7.586 21.078 9l6 6H1v2h26.077l-6 6 1.414 1.414L30.905 16l-8.414-8.414z"/></symbol><symbol id="icon-cil_arrow-left" viewBox="0 0 32 32"><path fill="#fff" style="fill:var(--color1,#fff)" d="M31 15.49H4.84l6.019-6.061L9.44 8 1 16.5 9.44 25l1.419-1.429-6.019-6.06H31V15.49z"/></symbol><symbol id="icon-cil_arrow-right" viewBox="0 0 32 32"><path fill="#fff" style="fill:var(--color1,#fff)" d="m22.56 8-1.42 1.429 6.02 6.06H1v2.021h26.16l-6.02 6.061L22.56 25 31 16.5 22.56 8z"/></symbol><symbol id="sl-arrow-left" viewBox="0 0 32 32"><path d="M31.083 15H5.006l6-6L9.59 7.586 1.177 16l8.414 8.414L11.005 23l-6-6h26.078v-2Z"/></symbol><symbol id="sl-arrow-right" viewBox="0 0 32 32"><path d="M22.492 7.586 21.078 9l6 6H1v2h26.078l-6 6 1.414 1.414L30.906 16l-8.414-8.414z"/></symbol></defs></svg>